<svg id="m2u2q9fg" width="100%" xmlns="http://www.w3.org/2000/svg" style="max-width: 2469.609375px;" viewBox="-8 -8 2469.609375 727.9212036132812" role="graphics-document document" aria-roledescription="flowchart-v2"><style>#m2u2q9fg{font-family:"Geist",-apple-system,system-ui,sans-serif;font-size:16px;fill:#0E1116;}#m2u2q9fg .error-icon{fill:#FFFFFF;}#m2u2q9fg .error-text{fill:#000000;stroke:#000000;}#m2u2q9fg .edge-thickness-normal{stroke-width:2px;}#m2u2q9fg .edge-thickness-thick{stroke-width:3.5px;}#m2u2q9fg .edge-pattern-solid{stroke-dasharray:0;}#m2u2q9fg .edge-pattern-dashed{stroke-dasharray:3;}#m2u2q9fg .edge-pattern-dotted{stroke-dasharray:2;}#m2u2q9fg .marker{fill:#5C6471;stroke:#5C6471;}#m2u2q9fg .marker.cross{stroke:#5C6471;}#m2u2q9fg svg{font-family:"Geist",-apple-system,system-ui,sans-serif;font-size:16px;}#m2u2q9fg .label{font-family:"Geist",-apple-system,system-ui,sans-serif;color:#0E1116;}#m2u2q9fg .cluster-label text{fill:#000000;}#m2u2q9fg .cluster-label span,#m2u2q9fg p{color:#000000;}#m2u2q9fg .label text,#m2u2q9fg span,#m2u2q9fg p{fill:#0E1116;color:#0E1116;}#m2u2q9fg .node rect,#m2u2q9fg .node circle,#m2u2q9fg .node ellipse,#m2u2q9fg .node polygon,#m2u2q9fg .node path{fill:#FAFAF7;stroke:#D6D3CA;stroke-width:1px;}#m2u2q9fg .flowchart-label text{text-anchor:middle;}#m2u2q9fg .node .katex path{fill:#000;stroke:#000;stroke-width:1px;}#m2u2q9fg .node .label{text-align:center;}#m2u2q9fg .node.clickable{cursor:pointer;}#m2u2q9fg .arrowheadPath{fill:#000000;}#m2u2q9fg .edgePath .path{stroke:#5C6471;stroke-width:2.0px;}#m2u2q9fg .flowchart-link{stroke:#5C6471;fill:none;}#m2u2q9fg .edgeLabel{background-color:#FFFFFF;text-align:center;}#m2u2q9fg .edgeLabel rect{opacity:0.5;background-color:#FFFFFF;fill:#FFFFFF;}#m2u2q9fg .labelBkg{background-color:rgba(255, 255, 255, 0.5);}#m2u2q9fg .cluster rect{fill:#F2F1EC;stroke:#E6E4DD;stroke-width:1px;}#m2u2q9fg .cluster text{fill:#000000;}#m2u2q9fg .cluster span,#m2u2q9fg p{color:#000000;}#m2u2q9fg div.mermaidTooltip{position:absolute;text-align:center;max-width:200px;padding:2px;font-family:"Geist",-apple-system,system-ui,sans-serif;font-size:12px;background:#FFFFFF;border:1px solid #5dbac8;border-radius:2px;pointer-events:none;z-index:100;}#m2u2q9fg .flowchartTitleText{text-anchor:middle;font-size:18px;fill:#0E1116;}#m2u2q9fg :root{--mermaid-font-family:"Geist",-apple-system,system-ui,sans-serif;}</style><g><marker id="m2u2q9fg_flowchart-pointEnd" class="marker flowchart" viewBox="0 0 10 10" refX="6" refY="5" markerUnits="userSpaceOnUse" markerWidth="12" markerHeight="12" orient="auto"><path d="M 0 0 L 10 5 L 0 10 z" class="arrowMarkerPath" style="stroke-width: 1; stroke-dasharray: 1, 0;"/></marker><marker id="m2u2q9fg_flowchart-pointStart" class="marker flowchart" viewBox="0 0 10 10" refX="4.5" refY="5" markerUnits="userSpaceOnUse" markerWidth="12" markerHeight="12" orient="auto"><path d="M 0 5 L 10 10 L 10 0 z" class="arrowMarkerPath" style="stroke-width: 1; stroke-dasharray: 1, 0;"/></marker><marker id="m2u2q9fg_flowchart-circleEnd" class="marker flowchart" viewBox="0 0 10 10" refX="11" refY="5" markerUnits="userSpaceOnUse" markerWidth="11" markerHeight="11" orient="auto"><circle cx="5" cy="5" r="5" class="arrowMarkerPath" style="stroke-width: 1; stroke-dasharray: 1, 0;"/></marker><marker id="m2u2q9fg_flowchart-circleStart" class="marker flowchart" viewBox="0 0 10 10" refX="-1" refY="5" markerUnits="userSpaceOnUse" markerWidth="11" markerHeight="11" orient="auto"><circle cx="5" cy="5" r="5" class="arrowMarkerPath" style="stroke-width: 1; stroke-dasharray: 1, 0;"/></marker><marker id="m2u2q9fg_flowchart-crossEnd" class="marker cross flowchart" viewBox="0 0 11 11" refX="12" refY="5.2" markerUnits="userSpaceOnUse" markerWidth="11" markerHeight="11" orient="auto"><path d="M 1,1 l 9,9 M 10,1 l -9,9" class="arrowMarkerPath" style="stroke-width: 2; stroke-dasharray: 1, 0;"/></marker><marker id="m2u2q9fg_flowchart-crossStart" class="marker cross flowchart" viewBox="0 0 11 11" refX="-1" refY="5.2" markerUnits="userSpaceOnUse" markerWidth="11" markerHeight="11" orient="auto"><path d="M 1,1 l 9,9 M 10,1 l -9,9" class="arrowMarkerPath" style="stroke-width: 2; stroke-dasharray: 1, 0;"/></marker><g class="root"><g class="clusters"><g class="cluster default flowchart-label" id="Client"><rect style="fill:#cce6ff;" rx="0" ry="0" x="397.734375" y="0" width="2055.875" height="402.530574798584"/><g class="cluster-label" transform="translate(1377.671875, 0)"><foreignObject width="96" height="24.796875"><div xmlns="http://www.w3.org/1999/xhtml" style="display: inline-block; white-space: nowrap;"><span class="nodeLabel">客户端运行时</span></div></foreignObject></g></g><g class="cluster default flowchart-label" id="Server"><rect style="fill:#e6e6e6;" rx="0" ry="0" x="856.46875" y="429.979793548584" width="184.875" height="174.6953125"/><g class="cluster-label" transform="translate(908.90625, 429.979793548584)"><foreignObject width="80" height="24.796875"><div xmlns="http://www.w3.org/1999/xhtml" style="display: inline-block; white-space: nowrap;"><span class="nodeLabel">远端服务器</span></div></foreignObject></g></g><g class="cluster default flowchart-label" id="Build"><rect style="fill:#ffe6cc;" rx="0" ry="0" x="0" y="422.530574798584" width="690.359375" height="289.390625"/><g class="cluster-label" transform="translate(284.3828125, 422.530574798584)"><foreignObject width="121.59375" height="24.796875"><div xmlns="http://www.w3.org/1999/xhtml" style="display: inline-block; white-space: nowrap;"><span class="nodeLabel">构建阶段 - Editor</span></div></foreignObject></g></g></g><g class="edgePaths"><path d="M168.75,477.429L172.917,477.429C177.083,477.429,185.417,477.429,196.462,477.429C207.507,477.429,221.264,477.429,228.142,477.429L235.02,477.429" id="L-AB-MD5Calc-0" class=" edge-thickness-normal edge-pattern-solid flowchart-link LS-AB LE-MD5Calc" style="fill:none;" marker-end="url(#m2u2q9fg_flowchart-pointEnd)"/><path d="M326.164,477.429L333.926,477.429C341.688,477.429,357.211,477.429,369.139,477.429C381.068,477.429,389.401,477.429,396.851,477.429C404.301,477.429,410.868,477.429,414.151,477.429L417.434,477.429" id="L-MD5Calc-VDH-0" class=" edge-thickness-normal edge-pattern-solid flowchart-link LS-MD5Calc LE-VDH" style="fill:none;" marker-end="url(#m2u2q9fg_flowchart-pointEnd)"/><path d="M305.382,627.76L316.607,617.671C327.833,607.582,350.284,587.404,365.676,577.315C381.068,567.226,389.401,567.226,407.7,567.226C425.999,567.226,454.264,567.226,468.396,567.226L482.528,567.226" id="L-HCLR-HotDLL-0" class=" edge-thickness-normal edge-pattern-solid flowchart-link LS-HCLR LE-HotDLL" style="fill:none;" marker-end="url(#m2u2q9fg_flowchart-pointEnd)"/><path d="M347.734,654.407L351.901,654.843C356.068,655.279,364.401,656.151,372.734,656.587C381.068,657.023,389.401,657.023,403.488,657.023C417.574,657.023,437.415,657.023,447.335,657.023L457.255,657.023" id="L-HCLR-MetaDLL-0" class=" edge-thickness-normal edge-pattern-solid flowchart-link LS-HCLR LE-MetaDLL" style="fill:none;" marker-end="url(#m2u2q9fg_flowchart-pointEnd)"/><path d="M665.359,477.429L669.526,477.429C673.693,477.429,682.026,477.429,700.035,477.429C718.044,477.429,745.729,477.429,773.414,477.429C801.099,477.429,828.784,477.429,848.581,479.718C868.378,482.007,880.287,486.585,886.242,488.874L892.197,491.163" id="L-VDH-HTTP-0" class=" edge-thickness-normal edge-pattern-dotted flowchart-link LS-VDH LE-HTTP" style="fill:none;stroke-width:2px;stroke-dasharray:3;" marker-end="url(#m2u2q9fg_flowchart-pointEnd)"/><path d="M600.266,567.226L615.281,567.226C630.297,567.226,660.328,567.226,689.186,567.226C718.044,567.226,745.729,567.226,773.414,567.226C801.099,567.226,828.784,567.226,851.621,561.946C874.458,556.666,892.448,546.105,901.443,540.825L910.438,535.545" id="L-HotDLL-HTTP-0" class=" edge-thickness-normal edge-pattern-dotted flowchart-link LS-HotDLL LE-HTTP" style="fill:none;stroke-width:2px;stroke-dasharray:3;" marker-end="url(#m2u2q9fg_flowchart-pointEnd)"/><path d="M637.305,325.335L646.147,325.335C654.99,325.335,672.674,325.335,695.359,325.335C718.044,325.335,745.729,325.335,773.414,325.335C801.099,325.335,828.784,325.335,856.008,352.498C883.233,379.66,909.997,433.986,923.379,461.148L936.761,488.311" id="L-SC-HTTP-0" class=" edge-thickness-normal edge-pattern-solid flowchart-link LS-SC LE-HTTP" style="fill:none;" marker-end="url(#m2u2q9fg_flowchart-pointEnd)"/><path d="M936.028,493.065L922.768,472.576C909.509,452.087,882.989,411.11,855.886,390.621C828.784,370.132,801.099,370.132,773.414,370.132C745.729,370.132,718.044,370.132,691.493,366.241C664.941,362.35,639.524,354.568,626.815,350.676L614.106,346.785" id="L-HTTP-SC-0" class=" edge-thickness-normal edge-pattern-solid flowchart-link LS-HTTP LE-SC" style="fill:none;" marker-end="url(#m2u2q9fg_flowchart-pointEnd)"/><path d="M555.414,305.437L577.905,266.066C600.396,226.695,645.378,147.953,681.711,108.582C718.044,69.212,745.729,69.212,773.414,69.212C801.099,69.212,828.784,69.212,849.062,69.212C869.34,69.212,882.211,69.212,888.647,69.212L895.083,69.212" id="L-SC-UM-0" class=" edge-thickness-normal edge-pattern-solid flowchart-link LS-SC LE-UM" style="fill:none;" marker-end="url(#m2u2q9fg_flowchart-pointEnd)"/><path d="M997.43,69.212L1004.749,69.212C1012.068,69.212,1026.706,69.212,1048.991,69.212C1071.276,69.212,1101.208,69.212,1130.257,69.212C1159.306,69.212,1187.472,69.212,1201.555,69.212L1215.638,69.212" id="L-UM-UC-0" class=" edge-thickness-normal edge-pattern-solid flowchart-link LS-UM LE-UC" style="fill:none;" marker-end="url(#m2u2q9fg_flowchart-pointEnd)"/><path d="M1361.516,60.692L1372.076,59.412C1382.635,58.132,1403.755,55.572,1443.236,54.292C1482.716,53.012,1540.557,53.012,1598.172,53.012C1655.786,53.012,1713.174,53.012,1755.863,64.91C1798.552,76.808,1826.542,100.603,1840.537,112.5L1854.532,124.398" id="L-UC-VM-0" class=" edge-thickness-normal edge-pattern-solid flowchart-link LS-UC LE-VM" style="fill:none;" marker-end="url(#m2u2q9fg_flowchart-pointEnd)"/><path d="M1903.622,167.628L1918.853,181.629C1934.084,195.63,1964.546,223.633,1989.496,237.635C2014.447,251.636,2033.886,251.636,2043.605,251.636L2053.325,251.636" id="L-VM-VDA-0" class=" edge-thickness-normal edge-pattern-solid flowchart-link LS-VM LE-VDA" style="fill:none;" marker-end="url(#m2u2q9fg_flowchart-pointEnd)"/><path d="M1361.516,86.908L1372.076,89.567C1382.635,92.225,1403.755,97.543,1431.761,105.644C1459.768,113.745,1494.66,124.63,1512.106,130.072L1529.553,135.515" id="L-UC-DW-0" class=" edge-thickness-normal edge-pattern-solid flowchart-link LS-UC LE-DW" style="fill:none;" marker-end="url(#m2u2q9fg_flowchart-pointEnd)"/><path d="M1708.563,156.992L1718.896,156.992C1729.229,156.992,1749.896,156.992,1769.682,156.206C1789.469,155.42,1808.375,153.848,1817.828,153.062L1827.281,152.276" id="L-DW-VM-0" class=" edge-thickness-normal edge-pattern-solid flowchart-link LS-DW LE-VM" style="fill:none;" marker-end="url(#m2u2q9fg_flowchart-pointEnd)"/><path d="M1905.723,127.831L1920.603,115.361C1935.484,102.891,1965.246,77.952,2004.337,65.482C2043.427,53.012,2091.846,53.012,2136.496,53.012C2181.146,53.012,2222.026,53.012,2252.033,62.293C2282.04,71.574,2301.173,90.135,2310.74,99.416L2320.306,108.697" id="L-VM-FS-0" class=" edge-thickness-normal edge-pattern-solid flowchart-link LS-VM LE-FS" style="fill:none;" marker-end="url(#m2u2q9fg_flowchart-pointEnd)"/><path d="M591.742,202.138L608.178,198.347C624.615,194.555,657.487,186.973,687.766,183.181C718.044,179.39,745.729,179.39,773.414,179.39C801.099,179.39,828.784,179.39,847.509,179.39C866.233,179.39,875.998,179.39,880.88,179.39L885.763,179.39" id="L-HM-AM-0" class=" edge-thickness-normal edge-pattern-solid flowchart-link LS-HM LE-AM" style="fill:none;" marker-end="url(#m2u2q9fg_flowchart-pointEnd)"/><path d="M1006.75,179.39L1012.516,179.39C1018.281,179.39,1029.813,179.39,1050.544,179.39C1071.276,179.39,1101.208,179.39,1131.861,179.39C1162.515,179.39,1193.889,179.39,1209.576,179.39L1225.263,179.39" id="L-AM-HotDLL_Cache-0" class=" edge-thickness-normal edge-pattern-solid flowchart-link LS-AM LE-HotDLL_Cache" style="fill:none;" marker-end="url(#m2u2q9fg_flowchart-pointEnd)"/><path d="M591.742,231.41L608.178,237.706C624.615,244.002,657.487,256.595,687.766,262.891C718.044,269.187,745.729,269.187,773.414,269.187C801.099,269.187,828.784,269.187,845.91,269.187C863.035,269.187,869.602,269.187,872.885,269.187L876.169,269.187" id="L-HM-HLM-0" class=" edge-thickness-normal edge-pattern-solid flowchart-link LS-HM LE-HLM" style="fill:none;" marker-end="url(#m2u2q9fg_flowchart-pointEnd)"/><path d="M2221.906,251.636L2228.74,251.636C2235.573,251.636,2249.24,251.636,2266.285,240.953C2283.329,230.269,2303.753,208.902,2313.964,198.218L2324.176,187.535" id="L-VDA-FS-0" class=" edge-thickness-normal edge-pattern-dotted flowchart-link LS-VDA LE-FS" style="fill:none;stroke-width:2px;stroke-dasharray:3;" marker-end="url(#m2u2q9fg_flowchart-pointEnd)"/><path d="M1351.891,179.39L1364.055,179.39C1376.219,179.39,1400.547,179.39,1422.395,178.14C1444.243,176.89,1463.61,174.39,1473.294,173.14L1482.978,171.89" id="L-HotDLL_Cache-DW-0" class=" edge-thickness-normal edge-pattern-dotted flowchart-link LS-HotDLL_Cache LE-DW" style="fill:none;stroke-width:2px;stroke-dasharray:3;" marker-end="url(#m2u2q9fg_flowchart-pointEnd)"/></g><g class="edgeLabels"><g class="edgeLabel"><g class="label" transform="translate(0, 0)"><foreignObject width="0" height="0"><div xmlns="http://www.w3.org/1999/xhtml" style="display: inline-block; white-space: nowrap;"><span class="edgeLabel"></span></div></foreignObject></g></g><g class="edgeLabel"><g class="label" transform="translate(0, 0)"><foreignObject width="0" height="0"><div xmlns="http://www.w3.org/1999/xhtml" style="display: inline-block; white-space: nowrap;"><span class="edgeLabel"></span></div></foreignObject></g></g><g class="edgeLabel"><g class="label" transform="translate(0, 0)"><foreignObject width="0" height="0"><div xmlns="http://www.w3.org/1999/xhtml" style="display: inline-block; white-space: nowrap;"><span class="edgeLabel"></span></div></foreignObject></g></g><g class="edgeLabel"><g class="label" transform="translate(0, 0)"><foreignObject width="0" height="0"><div xmlns="http://www.w3.org/1999/xhtml" style="display: inline-block; white-space: nowrap;"><span class="edgeLabel"></span></div></foreignObject></g></g><g class="edgeLabel"><g class="label" transform="translate(0, 0)"><foreignObject width="0" height="0"><div xmlns="http://www.w3.org/1999/xhtml" style="display: inline-block; white-space: nowrap;"><span class="edgeLabel"></span></div></foreignObject></g></g><g class="edgeLabel"><g class="label" transform="translate(0, 0)"><foreignObject width="0" height="0"><div xmlns="http://www.w3.org/1999/xhtml" style="display: inline-block; white-space: nowrap;"><span class="edgeLabel"></span></div></foreignObject></g></g><g class="edgeLabel" transform="translate(773.4140625, 325.335262298584)"><g class="label" transform="translate(-52.6875, -12.3984375)"><foreignObject width="105.375" height="24.796875"><div xmlns="http://www.w3.org/1999/xhtml" style="display: inline-block; white-space: nowrap;"><span class="edgeLabel">1.获取热更信息</span></div></foreignObject></g></g><g class="edgeLabel" transform="translate(773.4140625, 370.132137298584)"><g class="label" transform="translate(-53.796875, -12.3984375)"><foreignObject width="107.59375" height="24.796875"><div xmlns="http://www.w3.org/1999/xhtml" style="display: inline-block; white-space: nowrap;"><span class="edgeLabel">appVersion, url</span></div></foreignObject></g></g><g class="edgeLabel" transform="translate(773.4140625, 69.21150970458984)"><g class="label" transform="translate(-38.5625, -12.3984375)"><foreignObject width="77.125" height="24.796875"><div xmlns="http://www.w3.org/1999/xhtml" style="display: inline-block; white-space: nowrap;"><span class="edgeLabel">2.编排更新</span></div></foreignObject></g></g><g class="edgeLabel" transform="translate(1131.140625, 69.21150970458984)"><g class="label" transform="translate(-39.9296875, -12.3984375)"><foreignObject width="79.859375" height="24.796875"><div xmlns="http://www.w3.org/1999/xhtml" style="display: inline-block; white-space: nowrap;"><span class="edgeLabel">3.下载MD5</span></div></foreignObject></g></g><g class="edgeLabel" transform="translate(1598.3984375, 53.012290954589844)"><g class="label" transform="translate(-38.53125, -12.3984375)"><foreignObject width="77.0625" height="24.796875"><div xmlns="http://www.w3.org/1999/xhtml" style="display: inline-block; white-space: nowrap;"><span class="edgeLabel">4.对比差异</span></div></foreignObject></g></g><g class="edgeLabel" transform="translate(1995.0078125, 251.63604354858398)"><g class="label" transform="translate(-38.6171875, -12.3984375)"><foreignObject width="77.234375" height="24.796875"><div xmlns="http://www.w3.org/1999/xhtml" style="display: inline-block; white-space: nowrap;"><span class="edgeLabel">5.读写本地</span></div></foreignObject></g></g><g class="edgeLabel" transform="translate(1424.875, 102.85994720458984)"><g class="label" transform="translate(-38.359375, -12.3984375)"><foreignObject width="76.71875" height="24.796875"><div xmlns="http://www.w3.org/1999/xhtml" style="display: inline-block; white-space: nowrap;"><span class="edgeLabel">6.下载文件</span></div></foreignObject></g></g><g class="edgeLabel" transform="translate(1770.5625, 156.99151229858398)"><g class="label" transform="translate(-37, -12.3984375)"><foreignObject width="74" height="24.796875"><div xmlns="http://www.w3.org/1999/xhtml" style="display: inline-block; white-space: nowrap;"><span class="edgeLabel">7.解密解压</span></div></foreignObject></g></g><g class="edgeLabel" transform="translate(2140.265625, 53.012290954589844)"><g class="label" transform="translate(-30.4453125, -12.3984375)"><foreignObject width="60.890625" height="24.796875"><div xmlns="http://www.w3.org/1999/xhtml" style="display: inline-block; white-space: nowrap;"><span class="edgeLabel">8.持久化</span></div></foreignObject></g></g><g class="edgeLabel" transform="translate(773.4140625, 179.38994979858398)"><g class="label" transform="translate(-58.0546875, -12.3984375)"><foreignObject width="116.109375" height="24.796875"><div xmlns="http://www.w3.org/1999/xhtml" style="display: inline-block; white-space: nowrap;"><span class="edgeLabel">9.加载Assembly</span></div></foreignObject></g></g><g class="edgeLabel" transform="translate(1131.140625, 179.38994979858398)"><g class="label" transform="translate(-64.796875, -12.3984375)"><foreignObject width="129.59375" height="24.796875"><div xmlns="http://www.w3.org/1999/xhtml" style="display: inline-block; white-space: nowrap;"><span class="edgeLabel">10.Assembly.Load</span></div></foreignObject></g></g><g class="edgeLabel" transform="translate(773.4140625, 269.186824798584)"><g class="label" transform="translate(-39.4375, -12.3984375)"><foreignObject width="78.875" height="24.796875"><div xmlns="http://www.w3.org/1999/xhtml" style="display: inline-block; white-space: nowrap;"><span class="edgeLabel">11.反射调用</span></div></foreignObject></g></g><g class="edgeLabel" transform="translate(2262.90625, 251.63604354858398)"><g class="label" transform="translate(-16, -12.3984375)"><foreignObject width="32" height="24.796875"><div xmlns="http://www.w3.org/1999/xhtml" style="display: inline-block; white-space: nowrap;"><span class="edgeLabel">存盘</span></div></foreignObject></g></g><g class="edgeLabel" transform="translate(1424.875, 179.38994979858398)"><g class="label" transform="translate(-16, -12.3984375)"><foreignObject width="32" height="24.796875"><div xmlns="http://www.w3.org/1999/xhtml" style="display: inline-block; white-space: nowrap;"><span class="edgeLabel">来自</span></div></foreignObject></g></g></g><g class="nodes"><g class="node default default flowchart-label" id="flowchart-SC-27" data-node="true" data-id="SC" transform="translate(544.046875, 325.335262298584)"><rect class="basic label-container" style="" rx="0" ry="0" x="-93.2578125" y="-19.8984375" width="186.515625" height="39.796875"/><g class="label" style="" transform="translate(-85.7578125, -12.3984375)"><rect/><foreignObject width="171.515625" height="24.796875"><div xmlns="http://www.w3.org/1999/xhtml" style="display: inline-block; white-space: nowrap;"><span class="nodeLabel">UpdateSceneController</span></div></foreignObject></g></g><g class="node default default flowchart-label" id="flowchart-UM-32" data-node="true" data-id="UM" transform="translate(948.90625, 69.21150970458984)"><rect class="basic label-container" style="" rx="0" ry="0" x="-48.5234375" y="-19.8984375" width="97.046875" height="39.796875"/><g class="label" style="" transform="translate(-41.0234375, -12.3984375)"><rect/><foreignObject width="82.046875" height="24.796875"><div xmlns="http://www.w3.org/1999/xhtml" style="display: inline-block; white-space: nowrap;"><span class="nodeLabel">UpdateMgr</span></div></foreignObject></g></g><g class="node default default flowchart-label" id="flowchart-UC-34" data-node="true" data-id="UC" transform="translate(1291.2265625, 69.21150970458984)"><rect class="basic label-container" style="" rx="0" ry="0" x="-70.2890625" y="-19.8984375" width="140.578125" height="39.796875"/><g class="label" style="" transform="translate(-62.7890625, -12.3984375)"><rect/><foreignObject width="125.578125" height="24.796875"><div xmlns="http://www.w3.org/1999/xhtml" style="display: inline-block; white-space: nowrap;"><span class="nodeLabel">UpdateController</span></div></foreignObject></g></g><g class="node default default flowchart-label" id="flowchart-VM-36" data-node="true" data-id="VM" transform="translate(1881.9765625, 147.72922134399414)"><rect class="basic label-container" style="" rx="0" ry="0" x="-49.4140625" y="-19.8984375" width="98.828125" height="39.796875"/><g class="label" style="" transform="translate(-41.9140625, -12.3984375)"><rect/><foreignObject width="83.828125" height="24.796875"><div xmlns="http://www.w3.org/1999/xhtml" style="display: inline-block; white-space: nowrap;"><span class="nodeLabel">VersionMgr</span></div></foreignObject></g></g><g class="node default default flowchart-label" id="flowchart-VDA-38" data-node="true" data-id="VDA" transform="translate(2140.265625, 251.63604354858398)"><rect class="basic label-container" style="" rx="0" ry="0" x="-81.640625" y="-32.296875" width="163.28125" height="64.59375"/><g class="label" style="" transform="translate(-74.140625, -24.796875)"><rect/><foreignObject width="148.28125" height="49.59375"><div xmlns="http://www.w3.org/1999/xhtml" style="display: inline-block; white-space: nowrap;"><span class="nodeLabel">VersionDataForApp<br />Persistent/md5.json</span></div></foreignObject></g></g><g class="node default default flowchart-label" id="flowchart-DW-40" data-node="true" data-id="DW" transform="translate(1598.3984375, 156.99151229858398)"><rect class="basic label-container" style="" rx="0" ry="0" x="-110.1640625" y="-19.8984375" width="220.328125" height="39.796875"/><g class="label" style="" transform="translate(-102.6640625, -12.3984375)"><rect/><foreignObject width="205.328125" height="24.796875"><div xmlns="http://www.w3.org/1999/xhtml" style="display: inline-block; white-space: nowrap;"><span class="nodeLabel">DownloadMgr/WWWLoader</span></div></foreignObject></g></g><g class="node default default flowchart-label" id="flowchart-FS-44" label-offset-y="12.485138602089982" data-node="true" data-id="FS" transform="translate(2366.2578125, 147.72922134399414)"><path style="" d="M 0,12.485138602089982 a 62.3515625,12.485138602089982 0,0,0 124.703125 0 a 62.3515625,12.485138602089982 0,0,0 -124.703125 0 l 0,52.28201360208998 a 62.3515625,12.485138602089982 0,0,0 124.703125 0 l 0,-52.28201360208998" transform="translate(-62.3515625,-38.62614540313497)"/><g class="label" style="" transform="translate(-54.8515625, -12.3984375)"><rect/><foreignObject width="109.703125" height="24.796875"><div xmlns="http://www.w3.org/1999/xhtml" style="display: inline-block; white-space: nowrap;"><span class="nodeLabel">Persistent 目录</span></div></foreignObject></g></g><g class="node default default flowchart-label" id="flowchart-AM-46" data-node="true" data-id="AM" transform="translate(948.90625, 179.38994979858398)"><rect class="basic label-container" style="" rx="0" ry="0" x="-57.84375" y="-19.8984375" width="115.6875" height="39.796875"/><g class="label" style="" transform="translate(-50.34375, -12.3984375)"><rect/><foreignObject width="100.6875" height="24.796875"><div xmlns="http://www.w3.org/1999/xhtml" style="display: inline-block; white-space: nowrap;"><span class="nodeLabel">AssemblyMgr</span></div></foreignObject></g></g><g class="node default default flowchart-label" id="flowchart-HM-45" data-node="true" data-id="HM" transform="translate(544.046875, 213.13994979858398)"><rect class="basic label-container" style="" rx="0" ry="0" x="-47.6953125" y="-19.8984375" width="95.390625" height="39.796875"/><g class="label" style="" transform="translate(-40.1953125, -12.3984375)"><rect/><foreignObject width="80.390625" height="24.796875"><div xmlns="http://www.w3.org/1999/xhtml" style="display: inline-block; white-space: nowrap;"><span class="nodeLabel">HotModule</span></div></foreignObject></g></g><g class="node default default flowchart-label" id="flowchart-HotDLL_Cache-48" label-offset-y="12.313669521091024" data-node="true" data-id="HotDLL_Cache" transform="translate(1291.2265625, 179.38994979858398)"><path style="" d="M 0,12.313669521091024 a 60.6640625,12.313669521091024 0,0,0 121.328125 0 a 60.6640625,12.313669521091024 0,0,0 -121.328125 0 l 0,52.11054452109102 a 60.6640625,12.313669521091024 0,0,0 121.328125 0 l 0,-52.11054452109102" transform="translate(-60.6640625,-38.368941781636536)"/><g class="label" style="" transform="translate(-53.1640625, -12.3984375)"><rect/><foreignObject width="106.328125" height="24.796875"><div xmlns="http://www.w3.org/1999/xhtml" style="display: inline-block; white-space: nowrap;"><span class="nodeLabel">Persistent/dll/</span></div></foreignObject></g></g><g class="node default default flowchart-label" id="flowchart-HLM-50" data-node="true" data-id="HLM" transform="translate(948.90625, 269.186824798584)"><rect class="basic label-container" style="" rx="0" ry="0" x="-67.4375" y="-19.8984375" width="134.875" height="39.796875"/><g class="label" style="" transform="translate(-59.9375, -12.3984375)"><rect/><foreignObject width="119.875" height="24.796875"><div xmlns="http://www.w3.org/1999/xhtml" style="display: inline-block; white-space: nowrap;"><span class="nodeLabel">HotLifecycleMgr</span></div></foreignObject></g></g><g class="node default default flowchart-label" id="flowchart-HTTP-22" data-node="true" data-id="HTTP" transform="translate(948.90625, 512.9635963439941)"><rect class="basic label-container" style="" rx="0" ry="0" x="-52.75" y="-19.8984375" width="105.5" height="39.796875"/><g class="label" style="" transform="translate(-45.25, -12.3984375)"><rect/><foreignObject width="90.5" height="24.796875"><div xmlns="http://www.w3.org/1999/xhtml" style="display: inline-block; white-space: nowrap;"><span class="nodeLabel">HTTP Server</span></div></foreignObject></g></g><g class="node default default flowchart-label" id="flowchart-MD5Calc-15" data-node="true" data-id="MD5Calc" transform="translate(283.2421875, 477.429012298584)"><rect class="basic label-container" style="" rx="0" ry="0" x="-42.921875" y="-19.8984375" width="85.84375" height="39.796875"/><g class="label" style="" transform="translate(-35.421875, -12.3984375)"><rect/><foreignObject width="70.84375" height="24.796875"><div xmlns="http://www.w3.org/1999/xhtml" style="display: inline-block; white-space: nowrap;"><span class="nodeLabel">MD5 计算</span></div></foreignObject></g></g><g class="node default default flowchart-label" id="flowchart-AB-14" data-node="true" data-id="AB" transform="translate(96.875, 477.429012298584)"><rect class="basic label-container" style="" rx="0" ry="0" x="-71.875" y="-19.8984375" width="143.75" height="39.796875"/><g class="label" style="" transform="translate(-64.375, -12.3984375)"><rect/><foreignObject width="128.75" height="24.796875"><div xmlns="http://www.w3.org/1999/xhtml" style="display: inline-block; white-space: nowrap;"><span class="nodeLabel">AssetBundle 构建</span></div></foreignObject></g></g><g class="node default default flowchart-label" id="flowchart-VDH-17" data-node="true" data-id="VDH" transform="translate(544.046875, 477.429012298584)"><rect class="basic label-container" style="" rx="0" ry="0" x="-121.3125" y="-19.8984375" width="242.625" height="39.796875"/><g class="label" style="" transform="translate(-113.8125, -12.3984375)"><rect/><foreignObject width="227.625" height="24.796875"><div xmlns="http://www.w3.org/1999/xhtml" style="display: inline-block; white-space: nowrap;"><span class="nodeLabel">VersionDataForHotPatch JSON</span></div></foreignObject></g></g><g class="node default default flowchart-label" id="flowchart-HotDLL-19" data-node="true" data-id="HotDLL" transform="translate(544.046875, 567.225887298584)"><rect class="basic label-container" style="" rx="0" ry="0" x="-56.21875" y="-19.8984375" width="112.4375" height="39.796875"/><g class="label" style="" transform="translate(-48.71875, -12.3984375)"><rect/><foreignObject width="97.4375" height="24.796875"><div xmlns="http://www.w3.org/1999/xhtml" style="display: inline-block; white-space: nowrap;"><span class="nodeLabel">Hot*.dll.bytes</span></div></foreignObject></g></g><g class="node default default flowchart-label" id="flowchart-HCLR-18" data-node="true" data-id="HCLR" transform="translate(283.2421875, 647.6589088439941)"><rect class="basic label-container" style="" rx="0" ry="0" x="-64.4921875" y="-19.8984375" width="128.984375" height="39.796875"/><g class="label" style="" transform="translate(-56.9921875, -12.3984375)"><rect/><foreignObject width="113.984375" height="24.796875"><div xmlns="http://www.w3.org/1999/xhtml" style="display: inline-block; white-space: nowrap;"><span class="nodeLabel">HybridCLR 编译</span></div></foreignObject></g></g><g class="node default default flowchart-label" id="flowchart-MetaDLL-21" data-node="true" data-id="MetaDLL" transform="translate(544.046875, 657.022762298584)"><rect class="basic label-container" style="" rx="0" ry="0" x="-81.4921875" y="-19.8984375" width="162.984375" height="39.796875"/><g class="label" style="" transform="translate(-73.9921875, -12.3984375)"><rect/><foreignObject width="147.984375" height="24.796875"><div xmlns="http://www.w3.org/1999/xhtml" style="display: inline-block; white-space: nowrap;"><span class="nodeLabel">AOT 元数据 dll.bytes</span></div></foreignObject></g></g></g></g></g></svg>